# xmcd CD database file
#
# Track frame offsets:
#	150
#	12872
#	26475
#	46977
#	61337
#	74572
#	88717
#	102630
#	116547
#	129727
#	143030
#	157152
#	169775
#	183587
#	194615
#	205697
#	218837
#	233212
#	248755
#	263347
#	276915
#	292107
#	306057
#	318232
#	333077
#
# Disc length: 4605 seconds
#
# Revision: 6
# Processed by: cddbd v1.5.1PL2 Copyright (c) Steve Scherf et al.
# Submitted via: CDex 1.50
#
DISCID=7511fb19
DTITLE=Various Artist - Les triomphes du Jazz Vol. 20, Chanteurs Chanteuses
DYEAR=2000
DGENRE=Jazz
TTITLE0=Ray Charles - Blues before sunrise - 1949
TTITLE1=Adelaïde Hall - The blues i love to sing - 1927
TTITLE2=Louis Armstrong - Black and blue - 1947
TTITLE3=Bessie Smith - Saint Louis blues - 1925
TTITLE4=Big Joe Turner - Pïney brown blues - 1940
TTITLE5=Ivie Anderson - It don't mean a thing- 1932
TTITLE6=Jimmy Rushing - Good morning blues - 1937
TTITLE7=Ethrl Waters - Stormy weather - 1933
TTITLE8=Rubberlegs Williams - That's the blues - 1945
TTITLE9=Kay Davis - Transblucency - 1946
TTITLE10=Billy Eckstine - Blowin' the blues away - 1944
TTITLE11=Maxime Sullivan - The hour of parting - 1940
TTITLE12=T-Bone Walker - T-Bone boogie - 1945
TTITLE13=Sarah Vaughan -  Mean to me - 1949
TTITLE14=Slim and Slam - Flat foot floogee - 1938
TTITLE15=Helen Humes - My heart belongs to daddy - 1939
TTITLE16=Frank Sinatra - Star dust - 1940
TTITLE17=Mildred Bailey - Georgia on my mind - 1931
TTITLE18=Cab Calloway and His Orchestra - Minnie the moocher - 1942
TTITLE19=Nellie Lutcher and Her Orchestra - He's a real gone guy - 1947
TTITLE20=Nat King Cole - Embraceable you - 1943
TTITLE21=Dinah Washington and Her Orchestra - Mellow mama blues - 1945
TTITLE22=Louis Jordan and His Tympany Five - Caldonia - 1945
TTITLE23=Una Mae Carlisle and Her Orchestra - Blitzkrieg baby - 1941
TTITLE24=Wynonie Harris - Good rockin' to night - 1947
EXTD=
EXTT0=
EXTT1=
EXTT2=
EXTT3=
EXTT4=
EXTT5=
EXTT6=
EXTT7=
EXTT8=
EXTT9=
EXTT10=
EXTT11=
EXTT12=
EXTT13=
EXTT14=
EXTT15=
EXTT16=
EXTT17=
EXTT18=
EXTT19=
EXTT20=
EXTT21=
EXTT22=
EXTT23=
EXTT24=
PLAYORDER=
